<svg width="480" height="480" viewBox="0 0 480 480" fill="none" xmlns="http://www.w3.org/2000/svg">
<path d="M408 432H72C67.582 432 64 435.582 64 440C64 444.418 67.582 448 72 448H408C412.418 448 416 444.418 416 440C416 435.582 412.418 432 408 432Z" fill="#333333"/>
<path d="M472 40C467.582 40 464 43.582 464 48V80H440V24C440 10.7461 429.254 0 416 0H384C370.746 0 360 10.7461 360 24V80H336V24C336 10.7461 325.254 0 312 0H280C266.746 0 256 10.7461 256 24V80H224V24C224 10.7461 213.254 0 200 0H168C154.746 0 144 10.7461 144 24V80H120V24C120 10.7461 109.254 0 96 0H64C50.7461 0 40 10.7461 40 24V80H16V48C16 43.582 12.418 40 8 40C3.58203 40 0 43.582 0 48V216C0 220.418 3.58203 224 8 224H16V400H8C3.58203 400 0 403.582 0 408V440C0.0273438 462.082 17.918 479.973 40 480H440C462.082 479.973 479.973 462.082 480 440V408C480 403.582 476.418 400 472 400H464V224H472C476.418 224 480 220.418 480 216V48C480 43.582 476.418 40 472 40ZM376 24C376 19.582 379.582 16 384 16H416C420.418 16 424 19.582 424 24V80H376V24ZM272 24C272 19.582 275.582 16 280 16H312C316.418 16 320 19.582 320 24V80H272V24ZM160 24C160 19.582 163.582 16 168 16H200C204.418 16 208 19.582 208 24V80H160V24ZM56 24C56 19.582 59.582 16 64 16H96C100.418 16 104 19.582 104 24V80H56V24ZM464 440C464 453.254 453.254 464 440 464H40C26.7461 464 16 453.254 16 440V416H464V440ZM32 400V384H448V400H32ZM128 344V304H176V344C176 357.254 165.254 368 152 368C138.746 368 128 357.254 128 344ZM304 344V304H352V344C352 357.254 341.254 368 328 368C314.746 368 304 357.254 304 344ZM448 368H359.793C365.086 361.117 367.969 352.684 368 344V296C368 291.582 364.418 288 360 288H296C291.582 288 288 291.582 288 296V344C288.031 352.684 290.914 361.117 296.207 368H183.793C189.086 361.117 191.969 352.684 192 344V296C192 291.582 188.418 288 184 288H120C115.582 288 112 291.582 112 296V344C112.031 352.684 114.914 361.117 120.207 368H32V224H56L49.9297 232.098C42.8086 241.668 43.7578 255.004 52.1602 263.473L56.9609 268.273C61.457 272.781 63.9844 278.887 64 285.258V320C64 324.418 67.582 328 72 328C76.418 328 80 324.418 80 320V285.258C80.0273 274.645 75.8047 264.461 68.2812 256.977L63.4805 252.176C60.6641 249.359 60.3477 244.906 62.7344 241.719L76 224H112V240C112 244.418 115.582 248 120 248H128V264C128 268.418 131.582 272 136 272H168C172.418 272 176 268.418 176 264V248H184C188.418 248 192 244.418 192 240V224H288V240C288 244.418 291.582 248 296 248H304V264C304 268.418 307.582 272 312 272H344C348.418 272 352 268.418 352 264V248H360C364.418 248 368 244.418 368 240V224H404L417.273 241.695C419.664 244.883 419.348 249.344 416.527 252.16L411.727 256.961C404.195 264.445 399.973 274.637 400 285.258V320C400 324.418 403.582 328 408 328C412.418 328 416 324.418 416 320V285.258C416.016 278.895 418.543 272.797 423.031 268.289L427.832 263.488C436.234 255.02 437.184 241.684 430.062 232.113L424 224H448V368ZM144 248H160V256H144V248ZM128 232V224H176V232H128ZM320 248H336V256H320V248ZM304 232V224H352V232H304ZM464 208H16V96H464V208Z" fill="#333333"/>
<path d="M240 112C217.91 112 200 129.91 200 152C200 174.09 217.91 192 240 192C262.09 192 280 174.09 280 152C279.973 129.918 262.082 112.027 240 112ZM240 176C226.746 176 216 165.254 216 152C216 138.746 226.746 128 240 128C253.254 128 264 138.746 264 152C264 165.254 253.254 176 240 176Z" fill="#333333"/>
<path d="M328 128H312C307.582 128 304 131.582 304 136C304 140.418 307.582 144 312 144H328C332.418 144 336 140.418 336 136C336 131.582 332.418 128 328 128Z" fill="#333333"/>
<path d="M368 128H352C347.582 128 344 131.582 344 136C344 140.418 347.582 144 352 144H368C372.418 144 376 140.418 376 136C376 131.582 372.418 128 368 128Z" fill="#333333"/>
<path d="M408 128H392C387.582 128 384 131.582 384 136C384 140.418 387.582 144 392 144H408C412.418 144 416 140.418 416 136C416 131.582 412.418 128 408 128Z" fill="#333333"/>
<path d="M328 152H312C307.582 152 304 155.582 304 160C304 164.418 307.582 168 312 168H328C332.418 168 336 164.418 336 160C336 155.582 332.418 152 328 152Z" fill="#333333"/>
<path d="M368 152H352C347.582 152 344 155.582 344 160C344 164.418 347.582 168 352 168H368C372.418 168 376 164.418 376 160C376 155.582 372.418 152 368 152Z" fill="#333333"/>
<path d="M408 152H392C387.582 152 384 155.582 384 160C384 164.418 387.582 168 392 168H408C412.418 168 416 164.418 416 160C416 155.582 412.418 152 408 152Z" fill="#333333"/>
<path d="M88 128H72C67.582 128 64 131.582 64 136C64 140.418 67.582 144 72 144H88C92.418 144 96 140.418 96 136C96 131.582 92.418 128 88 128Z" fill="#333333"/>
<path d="M128 128H112C107.582 128 104 131.582 104 136C104 140.418 107.582 144 112 144H128C132.418 144 136 140.418 136 136C136 131.582 132.418 128 128 128Z" fill="#333333"/>
<path d="M168 128H152C147.582 128 144 131.582 144 136C144 140.418 147.582 144 152 144H168C172.418 144 176 140.418 176 136C176 131.582 172.418 128 168 128Z" fill="#333333"/>
<path d="M88 152H72C67.582 152 64 155.582 64 160C64 164.418 67.582 168 72 168H88C92.418 168 96 164.418 96 160C96 155.582 92.418 152 88 152Z" fill="#333333"/>
<path d="M128 152H112C107.582 152 104 155.582 104 160C104 164.418 107.582 168 112 168H128C132.418 168 136 164.418 136 160C136 155.582 132.418 152 128 152Z" fill="#333333"/>
<path d="M168 152H152C147.582 152 144 155.582 144 160C144 164.418 147.582 168 152 168H168C172.418 168 176 164.418 176 160C176 155.582 172.418 152 168 152Z" fill="#333333"/>
</svg>
