<svg width="480" height="480" viewBox="0 0 480 480" fill="none" xmlns="http://www.w3.org/2000/svg">
<path d="M472 128C476.418 128 480 124.418 480 120V72C479.957 32.2539 447.746 0.0429688 408 0H72C32.2539 0.0429688 0.0429688 32.2539 0 72V120C0 124.418 3.58203 128 8 128H32V352H24C19.582 352 16 355.582 16 360V384H8C3.58203 384 0 387.582 0 392V424C0.0351562 454.914 25.0859 479.965 56 480H424C454.914 479.965 479.965 454.914 480 424V392C480 387.582 476.418 384 472 384H464V360C464 355.582 460.418 352 456 352H448V128H472ZM16 72C16.0352 41.0859 41.0859 16.0352 72 16H408C438.914 16.0352 463.965 41.0859 464 72V112H16V72ZM320 160H336V176H320V160ZM304 144C293.832 143.988 284.77 137.582 281.367 128H374.633C371.23 137.582 362.168 143.988 352 144H304ZM144 160H160V176H144V160ZM128 144C117.832 143.988 108.77 137.582 105.367 128H198.633C195.23 137.582 186.168 143.988 176 144H128ZM464 424C463.973 446.082 446.082 463.973 424 464H56C33.918 463.973 16.0273 446.082 16 424V400H464V424ZM32 384V368H448V384H32ZM96 296V265.543L107.199 267.793C121.078 270.551 135.414 269.938 149.008 266.008L164.809 261.414C176.891 257.922 189.676 257.645 201.895 260.617L207.969 262.09V296C207.969 326.93 182.895 352 151.969 352C121.039 352 95.9688 326.93 95.9688 296H96ZM208 245.602L205.711 245.039C190.77 241.418 175.145 241.766 160.375 246.039L144.574 250.633C133.457 253.848 121.73 254.352 110.375 252.098L95.9766 249.215V224H208V245.602ZM272 296V265.543L283.199 267.793C297.078 270.551 311.414 269.938 325.008 266.008L340.809 261.414C352.891 257.922 365.676 257.645 377.895 260.617L383.969 262.09V296C383.969 326.93 358.895 352 327.969 352C297.039 352 271.969 326.93 271.969 296H272ZM384 245.602L381.711 245.039C366.77 241.418 351.145 241.766 336.375 246.039L320.574 250.633C309.457 253.848 297.73 254.352 286.375 252.098L271.977 249.215V224H384V245.602ZM432 352H373.152C390.121 338.363 399.996 317.77 400 296V216C400 211.582 396.418 208 392 208H264C259.582 208 256 211.582 256 216V296C256.004 317.77 265.879 338.363 282.848 352H197.152C214.121 338.363 223.996 317.77 224 296V216C224 211.582 220.418 208 216 208H88C83.582 208 80 211.582 80 216V296C80.0039 317.77 89.8789 338.363 106.848 352H48V128H88.8008C92.6289 146.613 109 159.977 128 160V184C128 188.418 131.582 192 136 192H168C172.418 192 176 188.418 176 184V160C195 159.977 211.371 146.613 215.199 128H264.801C268.629 146.613 285 159.977 304 160V184C304 188.418 307.582 192 312 192H344C348.418 192 352 188.418 352 184V160C371 159.977 387.371 146.613 391.199 128H432V352Z" fill="#333333"/>
<path d="M440 416C435.582 416 432 419.582 432 424C432 428.418 428.418 432 424 432H56C51.582 432 48 428.418 48 424C48 419.582 44.418 416 40 416C35.582 416 32 419.582 32 424C32 437.254 42.7461 448 56 448H424C437.254 448 448 437.254 448 424C448 419.582 444.418 416 440 416Z" fill="#333333"/>
<path d="M72 104H200C213.254 104 224 93.2539 224 80V48C224 34.7461 213.254 24 200 24H72C58.7461 24 48 34.7461 48 48V80C48 93.2539 58.7461 104 72 104ZM64 48C64 43.582 67.582 40 72 40H200C204.418 40 208 43.582 208 48V80C208 84.418 204.418 88 200 88H72C67.582 88 64 84.418 64 80V48Z" fill="#333333"/>
<path d="M72 64C72 77.2539 82.7461 88 96 88C109.254 88 120 77.2539 120 64C120 50.7461 109.254 40 96 40C82.7461 40 72 50.7461 72 64ZM96 56C100.418 56 104 59.582 104 64C104 68.418 100.418 72 96 72C91.582 72 88 68.418 88 64C88 59.582 91.582 56 96 56Z" fill="#333333"/>
<path d="M136 72H152C156.418 72 160 68.418 160 64C160 59.582 156.418 56 152 56H136C131.582 56 128 59.582 128 64C128 68.418 131.582 72 136 72Z" fill="#333333"/>
<path d="M176 72H192C196.418 72 200 68.418 200 64C200 59.582 196.418 56 192 56H176C171.582 56 168 59.582 168 64C168 68.418 171.582 72 176 72Z" fill="#333333"/>
<path d="M280 104H408C421.254 104 432 93.2539 432 80V48C432 34.7461 421.254 24 408 24H280C266.746 24 256 34.7461 256 48V80C256 93.2539 266.746 104 280 104ZM272 48C272 43.582 275.582 40 280 40H408C412.418 40 416 43.582 416 48V80C416 84.418 412.418 88 408 88H280C275.582 88 272 84.418 272 80V48Z" fill="#333333"/>
<path d="M280 64C280 77.2539 290.746 88 304 88C317.254 88 328 77.2539 328 64C328 50.7461 317.254 40 304 40C290.746 40 280 50.7461 280 64ZM304 56C308.418 56 312 59.582 312 64C312 68.418 308.418 72 304 72C299.582 72 296 68.418 296 64C296 59.582 299.582 56 304 56Z" fill="#333333"/>
<path d="M344 72H360C364.418 72 368 68.418 368 64C368 59.582 364.418 56 360 56H344C339.582 56 336 59.582 336 64C336 68.418 339.582 72 344 72Z" fill="#333333"/>
<path d="M384 72H400C404.418 72 408 68.418 408 64C408 59.582 404.418 56 400 56H384C379.582 56 376 59.582 376 64C376 68.418 379.582 72 384 72Z" fill="#333333"/>
</svg>
