<svg width="480" height="480" viewBox="0 0 480 480" fill="none" xmlns="http://www.w3.org/2000/svg">
<path d="M448 384H440V360C440 355.582 436.418 352 432 352H408V128H432C436.418 128 440 124.418 440 120V72C439.953 32.2539 407.746 0.046875 368 0H112C72.2539 0.046875 40.0469 32.2539 40 72V120C40 124.418 43.582 128 48 128H72V352H48C43.582 352 40 355.582 40 360V384H32C27.582 384 24 387.582 24 392V408C24.0469 447.746 56.2539 479.953 96 480H384C423.746 479.953 455.953 447.746 456 408V392C456 387.582 452.418 384 448 384ZM56 72C56.0352 41.0859 81.0859 16.0352 112 16H368C398.914 16.0352 423.965 41.0859 424 72V112H56V72ZM232 160H248V176H232V160ZM216 144C205.832 143.988 196.77 137.582 193.367 128H286.633C283.23 137.582 274.168 143.988 264 144H216ZM88 128H176.801C180.629 146.613 197 159.977 216 160V184C216 188.418 219.582 192 224 192H256C260.418 192 264 188.418 264 184V160C283 159.977 299.371 146.613 303.199 128H392V352H285.152C299.938 340.105 309.426 322.855 311.551 304H320C342.09 304 360 286.09 360 264C360 241.91 342.09 224 320 224H312V216C312 211.582 308.418 208 304 208H176C171.582 208 168 211.582 168 216V296C168.004 317.77 177.879 338.363 194.848 352H88V128ZM184 296V265.543L195.199 267.793C209.074 270.551 223.41 269.938 237 266.008L252.809 261.414C264.887 257.914 277.676 257.637 289.895 260.617L295.969 262.09V296C295.969 326.93 270.895 352 239.969 352C209.039 352 183.969 326.93 183.969 296H184ZM312 240H320C333.254 240 344 250.746 344 264C344 277.254 333.254 288 320 288H312V240ZM296 245.602L293.711 245.039C278.77 241.414 263.141 241.762 248.375 246.039L232.566 250.633C221.449 253.852 209.719 254.355 198.367 252.098L183.969 249.215V224H296V245.602ZM56 368H424V384H56V368ZM440 408C439.965 438.914 414.914 463.965 384 464H96C65.0859 463.965 40.0352 438.914 40 408V400H440V408Z" fill="#333333"/>
<path d="M415.719 417.079C411.898 414.875 407.012 416.18 404.801 420C400.492 427.415 392.574 431.981 384 432H96C87.4258 431.981 79.5078 427.415 75.1992 420C72.9258 416.325 68.1406 415.118 64.3946 417.282C60.6524 419.446 59.3047 424.192 61.3516 428C68.5274 440.348 81.7188 447.965 96 448H384C398.277 447.957 411.461 440.344 418.633 428C420.84 424.18 419.535 419.293 415.719 417.079Z" fill="#333333"/>
<path d="M176 104H304C317.254 104 328 93.2539 328 80V48C328 34.7461 317.254 24 304 24H176C162.746 24 152 34.7461 152 48V80C152 93.2539 162.746 104 176 104ZM168 48C168 43.582 171.582 40 176 40H304C308.418 40 312 43.582 312 48V80C312 84.418 308.418 88 304 88H176C171.582 88 168 84.418 168 80V48Z" fill="#333333"/>
<path d="M176 64C176 77.2539 186.746 88 200 88C213.254 88 224 77.2539 224 64C224 50.7461 213.254 40 200 40C186.746 40 176 50.7461 176 64ZM200 56C204.418 56 208 59.582 208 64C208 68.418 204.418 72 200 72C195.582 72 192 68.418 192 64C192 59.582 195.582 56 200 56Z" fill="#333333"/>
<path d="M240 72H256C260.418 72 264 68.418 264 64C264 59.582 260.418 56 256 56H240C235.582 56 232 59.582 232 64C232 68.418 235.582 72 240 72Z" fill="#333333"/>
<path d="M280 72H296C300.418 72 304 68.418 304 64C304 59.582 300.418 56 296 56H280C275.582 56 272 59.582 272 64C272 68.418 275.582 72 280 72Z" fill="#333333"/>
</svg>
